<svg width="101" height="37" viewBox="0 0 101 37" fill="none" xmlns="http://www.w3.org/2000/svg">
<path d="M19.7986 12.0672C18.8726 10.9923 17.8474 10.1931 16.7616 9.70807C15.6758 9.22303 14.4466 8.97499 13.1127 8.97499C9.31506 8.97499 7.2426 11.2238 6.43235 12.3758V9.52618H0V36.2973H6.42684V21.4263C6.42684 19.216 6.96149 17.579 8.01977 16.5593C9.07805 15.5396 10.4395 15.0215 12.0655 15.0215C12.8096 15.0215 13.471 15.1262 14.0332 15.3357C14.5899 15.5451 15.1025 15.8979 15.5545 16.3885L15.6923 16.5373L19.9089 12.1994L19.7931 12.0672H19.7986Z" fill="#B5E600"/>
<path d="M44.2438 15.8924C43.0973 13.7097 41.5595 11.9955 39.6689 10.7884C37.7784 9.5813 35.4303 8.96948 32.6964 8.96948C29.9625 8.96948 27.609 9.59783 25.4814 10.838C23.3538 12.0782 21.6506 13.7538 20.4105 15.8262C19.1703 17.8987 18.5419 20.2633 18.5419 22.8484C18.5419 25.4334 19.1593 27.8146 20.3829 29.9256C21.6065 32.0367 23.3207 33.7343 25.4814 34.969C27.642 36.2091 30.161 36.8375 32.972 36.8375C35.1823 36.8375 37.2547 36.4462 39.1178 35.669C40.9863 34.8918 42.5957 33.7288 43.891 32.2075L44.0013 32.0752L39.8894 27.9028L39.7571 28.0571C38.9744 28.95 37.9988 29.6335 36.8579 30.0965C35.7169 30.5595 34.3886 30.7965 32.9169 30.7965C31.8586 30.7965 30.8775 30.6587 29.9901 30.3831L44.3099 16.0137L44.2438 15.8924ZM25.8066 26.9988C25.1727 25.8138 24.853 24.4193 24.853 22.8539C24.853 21.2885 25.1782 19.9326 25.8176 18.7365C26.457 17.546 27.383 16.5979 28.5735 15.9255C29.7696 15.2475 31.1862 14.9058 32.7956 14.9058C34.4051 14.9058 35.8051 15.2255 36.7587 15.8648C36.7917 15.8869 36.8248 15.9144 36.8579 15.9365L25.8011 26.9933L25.8066 26.9988Z" fill="#B5E600"/>
<path d="M64.8692 27.9579C64.1251 28.8453 63.2101 29.5232 62.1629 29.9697C61.1101 30.4162 59.9416 30.6422 58.6904 30.6422C57.2298 30.6422 55.9179 30.3114 54.799 29.65C53.6801 28.9941 52.7982 28.0736 52.1754 26.9216C51.5525 25.7642 51.2328 24.4137 51.2328 22.9145C51.2328 21.4153 51.547 20.0208 52.1754 18.8798C52.7982 17.7444 53.6801 16.8349 54.799 16.1735C55.9179 15.5176 57.2298 15.1814 58.6904 15.1814C59.9416 15.1814 61.1101 15.4073 62.1629 15.8538C63.2101 16.3003 64.1196 16.9727 64.8692 17.8656L65.0015 18.0255L69.2291 13.7372L69.1189 13.605C67.8567 12.1223 66.3078 10.9703 64.5165 10.1766C62.7251 9.38287 60.7629 8.97499 58.6959 8.97499C56.0723 8.97499 53.6636 9.59232 51.536 10.816C49.4084 12.0396 47.7108 13.7152 46.4926 15.8042C45.2745 17.8932 44.6517 20.2854 44.6517 22.909C44.6517 25.5327 45.269 27.8752 46.4926 29.9862C47.7108 32.0973 49.4084 33.7839 51.536 35.0021C53.6636 36.2257 56.0723 36.843 58.6959 36.843C60.7629 36.843 62.7251 36.4407 64.5165 35.6414C66.3133 34.8477 67.8622 33.6902 69.1189 32.2075L69.2291 32.0752L65.0015 27.787L64.8692 27.9469V27.9579Z" fill="#B5E600"/>
<path d="M85.2246 9.15137C77.3867 8.04899 70.1441 13.3294 69.0748 20.9192C68.0055 28.5091 73.5063 35.5808 81.3442 36.6832C89.1766 37.7855 96.4247 32.5107 97.494 24.9208C98.5633 17.331 93.0569 10.2537 85.2246 9.15137ZM91.8057 22.424C91.2546 26.3374 87.6333 29.0603 83.7198 28.5091C79.8064 27.9579 77.0835 24.3421 77.6347 20.4287C78.1859 16.5152 81.8017 13.7869 85.7151 14.338C89.6286 14.8892 92.3569 18.5105 91.8057 22.424Z" fill="#B5E600"/>
<path d="M98.7397 0.751277C96.7444 -0.599132 94.027 -0.0810156 92.6766 1.91979C91.3262 3.91509 91.8443 6.63244 93.8451 7.98285C95.8404 9.33326 98.5578 8.81515 99.9082 6.81434C101.259 4.81904 100.74 2.10169 98.7397 0.751277Z" fill="#B5E600"/>
</svg>
